<svg xmlns="http://www.w3.org/2000/svg" viewBox="0 0 670.09 189.34" fill="currentColor">
  <g>
    <path d="M3.39,120.23c-10.39,33.99,3.37,69.11,37.36,69.11,20.23,0,36.24-12.36,42.42-21.35,4.21,12.92,15.45,21.35,31.46,21.35,31.46,0,49.44-32.59,55.62-56.18.84-3.09.28-5.06-3.09-6.18l-10.96-3.37c-3.37-.84-5.34,0-6.46,3.37-3.93,10.39-13.48,33.99-26.41,33.99-7.87,0-8.71-8.99-6.46-23.88L137.68,5.62c.28-3.09-1.69-5.62-4.78-5.62h-22.47c-3.37,0-6.18,2.25-6.46,5.62l-11.8,75.29c-4.21-3.93-13.77-10.68-29.22-10.68-26.97,0-50.85,21.07-59.56,50ZM69.97,99.45c9.55,0,14.89,5.62,17.7,8.71h.28c-4.21,27.81-19.1,52.81-36.52,52.81-13.2,0-18.82-14.89-14.61-31.46,4.78-19.38,19.66-30.06,33.15-30.06Z"/>
    <path d="M184.59,189.34c20.79,0,36.8-12.36,42.98-21.35,4.21,12.92,15.45,21.35,31.46,21.35,31.46,0,49.44-32.59,55.62-56.18.84-3.09.28-5.06-3.09-6.18l-10.96-3.37c-3.37-1.12-5.34,0-6.46,3.37-3.93,10.39-13.48,33.99-26.41,33.99-7.87,0-8.71-8.99-6.46-23.88l8.99-57.87c.56-3.09-1.4-5.62-4.78-5.62h-22.47c-3.37,0-5.9,2.25-6.46,5.62l-.28,1.69c-4.49-3.93-13.48-10.68-28.65-10.68-27.25,0-52.25,21.35-61.24,50.85-10.11,33.43,3.37,68.26,38.21,68.26ZM232.06,108.16c-3.93,27.81-18.82,52.81-36.24,52.81-13.2,0-19.1-14.89-14.89-31.46,5.06-19.38,19.38-30.06,33.15-30.06,9.83,0,15.17,5.62,17.98,8.71Z"/>
    <path d="M286,180.35c-.28,3.09,1.69,5.62,4.78,5.62h22.47c3.93,0,5.9-2.25,6.46-5.62l2.81-18.54c6.74-42.98,26.41-61.52,43.26-61.52,14.89,0,19.1,14.33,15.17,31.46-3.37,14.89-12.36,29.22-25.84,29.22-6.74,0-10.11-.56-12.64-1.4-3.93-1.12-6.46-.56-7.58,2.25l-5.62,13.2c-1.69,3.93-.28,6.18,5.9,8.71,4.49,1.97,15.45,5.62,34.27,5.62,29.5,0,52.25-8.99,69.39-27.53,6.74-7.58,12.64-16.57,15.17-26.41,1.4-5.34.84-7.3-2.53-8.43l-10.96-3.37c-3.37-.84-5.34,0-6.46,3.37-3.65,9.83-7.58,15.73-12.08,20.51-8.15,8.43-19.38,14.61-26.69,14.61,7.3-4.21,20.51-18.82,22.19-41.58,2.25-30.34-17.7-50.29-43.26-50.29-18.54,0-32.59,10.68-40.17,18.54l13.2-83.15c.56-3.09-1.4-5.62-4.78-5.62h-22.47c-3.37,0-5.9,2.25-6.46,5.62l-27.53,174.73Z"/>
    <path d="M541.92,129.22c-10.68,21.91-30.62,31.18-47.76,31.18-12.08,0-19.66-4.78-23.6-12.36,24.44.56,58.15-10.96,64.61-37.92,5.62-22.75-11.8-39.89-37.08-39.89-28.09,0-58.99,21.07-65.74,54.5-7.58,36.52,18.82,64.61,55.62,64.61s64.33-25.28,75.57-56.18c1.12-3.09.28-5.06-3.09-6.18l-10.96-3.37c-3.37-1.12-4.78,0-7.58,5.62ZM468.04,131.19c0-.56.28-1.4.28-1.97,3.09-17.14,18.26-30.06,28.94-30.06,5.62,0,8.71,3.37,8.71,7.87,0,11.52-18.82,23.32-37.92,24.16Z"/>
    <path d="M649.23,126.98c-4.21,11.52-15.45,33.99-28.94,33.99-6.46,0-10.96-5.34-7.87-18.82,3.65-16.57,9.55-36.8,10.11-39.05,1.97-9.27,1.4-14.33-7.87-18.54-14.05-6.18-31.18-11.52-39.33-17.42.56-10.96-5.06-20.23-16.01-19.1-12.64,1.12-17.98,14.61-11.24,31.18,1.69,9.83.56,32.59-5.9,49.72-1.12,2.53-.56,4.49,1.97,5.34l13.2,5.06c2.53.84,4.21.56,5.06-2.25,4.21-13.48,7.3-28.94,8.99-44.67l10.96,5.06c4.49,1.97,5.9,4.21,4.49,9.83-3.65,16.01-8.15,27.25-10.39,40.45-3.37,21.91,13.2,41.58,36.8,41.58,30.62,0,50.29-32.59,56.47-56.18.84-3.09.28-5.06-3.09-6.18l-10.96-3.37c-3.37-1.12-5.34,0-6.46,3.37Z"/>
  </g>
  <path d="M498.15,43.67c-.4,1.17-1.13,4.65-3.55,4.14-2.41-.51-1.69-3.98-1.58-5.22l3.89-31.32c.07-1.09.32-2.29.64-3.8,1.42-6,3.88-8.01,7.05-7.34,3.17.66,4.62,3.49,3.51,9.56-.32,1.51-.57,2.72-.94,3.74l-9.02,30.25Z"/>
</svg>
