<?xml version="1.0" encoding="UTF-8"?>
<svg id="Layer_1" data-name="Layer 1" xmlns="http://www.w3.org/2000/svg" viewBox="0 0 64 64">
  <defs>
    <style>
      .cls-1 {
        fill: #006ab3;
      }

      .cls-2 {
        fill: #fff;
      }
    </style>
  </defs>
  <rect class="cls-1" width="64" height="64" rx="14" ry="14"/>
  <path class="cls-2" d="M11.06,37.4c-2.66,8.69.86,17.66,9.55,17.66,5.17,0,9.26-3.16,10.84-5.46,1.08,3.3,3.95,5.46,8.04,5.46,8.04,0,12.64-8.33,14.22-14.36.22-.79.07-1.29-.79-1.58l-2.8-.86c-.86-.22-1.36,0-1.65.86-1.01,2.66-3.45,8.69-6.75,8.69-2.01,0-2.23-2.3-1.65-6.1l5.31-33.6c.07-.79-.43-1.44-1.22-1.44h-5.74c-.86,0-1.58.57-1.65,1.44l-3.02,19.24c-1.08-1.01-3.52-2.73-7.47-2.73-6.89,0-13,5.39-15.22,12.78ZM28.08,32.09c2.44,0,3.81,1.44,4.52,2.23h.07c-1.08,7.11-4.88,13.5-9.33,13.5-3.37,0-4.81-3.81-3.73-8.04,1.22-4.95,5.03-7.68,8.47-7.68Z"/>
</svg>